HIERARCHY
ROOT Hips
{
	OFFSET 0.000000 0.000000 0.000000
	CHANNELS 6 Xposition Yposition Zposition Zrotation Yrotation Xrotation 
	JOINT LHipJoint
	{
		OFFSET 0.000000 0.000000 0.000000
		CHANNELS 3 Zrotation Yrotation Xrotation
		JOINT LeftUpLeg
		{
			OFFSET 1.363060 -1.794630 0.839290
			CHANNELS 3 Zrotation Yrotation Xrotation
			JOINT LeftLeg
			{
				OFFSET 2.448110 -6.726130 0.000000
				CHANNELS 3 Zrotation Yrotation Xrotation
				JOINT LeftFoot
				{
					OFFSET 2.562200 -7.039590 0.000000
					CHANNELS 3 Zrotation Yrotation Xrotation
					JOINT LeftToeBase
					{
						OFFSET 0.157640 -0.433110 2.322550
						CHANNELS 3 Zrotation Yrotation Xrotation
						End Site
						{
							OFFSET 0.000000 0.000000 0.000000
						}
					}
				}
			}
		}
	}
	JOINT RHipJoint
	{
		OFFSET 0.000000 0.000000 0.000000
		CHANNELS 3 Zrotation Yrotation Xrotation
		JOINT RightUpLeg
		{
			OFFSET -1.305520 -1.794630 0.839290
			CHANNELS 3 Zrotation Yrotation Xrotation
			JOINT RightLeg
			{
				OFFSET -2.542530 -6.985550 0.000000
				CHANNELS 3 Zrotation Yrotation Xrotation
				JOINT RightFoot
				{
					OFFSET -2.568260 -7.056230 0.000000
					CHANNELS 3 Zrotation Yrotation Xrotation
					JOINT RightToeBase
					{
						OFFSET -0.164730 -0.452590 2.363150
						CHANNELS 3 Zrotation Yrotation Xrotation
						End Site
						{
							OFFSET 0.000000 0.000000 0.000000
						}
					}
				}
			}
		}
	}
	JOINT LowerBack
	{
		OFFSET 0.000000 0.000000 0.000000
		CHANNELS 3 Zrotation Yrotation Xrotation
		JOINT Spine
		{
			OFFSET 0.028270 2.035590 -0.193380
			CHANNELS 3 Zrotation Yrotation Xrotation
			JOINT Spine1
			{
				OFFSET 0.056720 2.048850 -0.042750
				CHANNELS 3 Zrotation Yrotation Xrotation
				JOINT Neck
				{
					OFFSET 0.000000 0.000000 0.000000
					CHANNELS 3 Zrotation Yrotation Xrotation
					JOINT Neck1
					{
						OFFSET -0.054170 1.746240 0.172020
						CHANNELS 3 Zrotation Yrotation Xrotation
						JOINT Head
						{
							OFFSET 0.104070 1.761360 -0.123970
							CHANNELS 3 Zrotation Yrotation Xrotation
							End Site
							{
								OFFSET 0.000000 0.000000 0.000000
							}
						}
					}
				}
				JOINT LeftShoulder
				{
					OFFSET 0.000000 0.000000 0.000000
					CHANNELS 3 Zrotation Yrotation Xrotation
					JOINT LeftArm
					{
						OFFSET 3.362410 1.200890 -0.311210
						CHANNELS 3 Zrotation Yrotation Xrotation
						JOINT LeftForeArm
						{
							OFFSET 4.983000 -0.000000 -0.000000
							CHANNELS 3 Zrotation Yrotation Xrotation
							JOINT LeftHand
							{
								OFFSET 3.483560 -0.000000 -0.000000
								CHANNELS 3 Zrotation Yrotation Xrotation
								JOINT LeftFingerBase
								{
									OFFSET 0.000000 0.000000 0.000000
									CHANNELS 3 Zrotation Yrotation Xrotation
									JOINT LeftHandIndex1
									{
										OFFSET 0.715260 -0.000000 -0.000000
										CHANNELS 3 Zrotation Yrotation Xrotation
										End Site
										{
											OFFSET 0.000000 0.000000 0.000000
										}
									}
								}
								JOINT LThumb
								{
									OFFSET 0.000000 0.000000 0.000000
									CHANNELS 3 Zrotation Yrotation Xrotation
									End Site
									{
										OFFSET 0.000000 0.000000 0.000000
									}
								}
							}
						}
					}
				}
				JOINT RightShoulder
				{
					OFFSET 0.000000 0.000000 0.000000
					CHANNELS 3 Zrotation Yrotation Xrotation
					JOINT RightArm
					{
						OFFSET -3.136600 1.374050 -0.404650
						CHANNELS 3 Zrotation Yrotation Xrotation
						JOINT RightForeArm
						{
							OFFSET -5.241900 -0.000000 -0.000000
							CHANNELS 3 Zrotation Yrotation Xrotation
							JOINT RightHand
							{
								OFFSET -3.444170 -0.000000 -0.000000
								CHANNELS 3 Zrotation Yrotation Xrotation
								JOINT RightFingerBase
								{
									OFFSET 0.000000 0.000000 0.000000
									CHANNELS 3 Zrotation Yrotation Xrotation
									JOINT RightHandIndex1
									{
										OFFSET -0.622530 -0.000000 -0.000000
										CHANNELS 3 Zrotation Yrotation Xrotation
										End Site
										{
											OFFSET 0.000000 0.000000 0.000000
										}
									}
								}
								JOINT RThumb
								{
									OFFSET 0.000000 0.000000 0.000000
									CHANNELS 3 Zrotation Yrotation Xrotation
									End Site
									{
										OFFSET 0.000000 0.000000 0.000000
									}
								}
							}
						}
					}
				}
			}
		}
	}
}
MOTION
Frames: 5
Frame Time: 0.008333
2.709649 16.438709 1.109775 171.607648 -61.121636 -154.617473 -10.414595 0.792513 -2.754581 -3.986650 29.702129 -24.510285 -2.033072 0.173523 19.307015 4.021529 30.036604 4.302229 7.082499 0.000000 -58.901700 11.239823 0.496010 5.469131 -10.519726 3.003186 -44.450359 0.214332 -2.059390 34.363231 -0.416193 -0.157133 -1.866143 -0.251900 0.000000 -80.042900 -4.017570 -1.654798 -3.959221 -1.135701 -1.433581 -4.076722 -5.099453 -1.431370 -2.145979 10.557184 -5.909647 -3.316677 -2.494231 -0.240577 1.136186 0.000000 0.000000 0.000000 4.174818 5.680034 2.547209 -58.905417 18.971115 -10.338937 -179.566894 -73.544687 179.938940 10.476697 -11.056138 -1.083372 -0.170692 0.560204 0.000000 0.000000 0.000000 0.000000 0.000000 0.000000 0.000000 5.510988 0.474626 -3.909072 70.455574 55.130732 15.653281 -179.145369 61.535528 179.693172 -24.932078 17.898881 -4.352246 0.542581 -1.199455 -0.000000 0.000000 0.000000 0.000000 0.000000 0.000000 0.000000 
2.669347 16.469171 1.102830 173.470912 -58.308121 -155.520471 -10.517617 0.815510 -2.850952 -3.993823 30.601399 -24.257463 -2.063555 0.130565 18.477040 4.209184 31.496022 4.773053 7.794500 0.000000 -58.099800 11.000790 0.330721 6.026307 -10.415155 5.038664 -45.523476 0.241843 -1.897076 32.740821 -0.229448 0.655075 -0.757753 -0.163000 -0.000000 -80.194401 -3.298169 -1.532507 -4.381238 -1.001000 -1.390363 -4.075131 -5.060397 -1.386779 -1.691984 10.766567 -6.289556 -3.977606 -2.447118 -0.229492 0.958807 0.000000 0.000000 0.000000 4.724456 6.753261 2.693210 -57.919217 21.803705 -10.954409 -179.454972 -72.608098 179.950548 9.249164 -11.202374 -0.967477 -0.158874 0.547300 -0.000000 0.000000 0.000000 0.000000 0.000000 0.000000 0.000000 5.793451 0.480940 -3.665846 68.882533 55.696789 15.702652 -179.290151 61.494166 179.698343 -24.922882 17.544882 -4.269674 0.563108 -1.192353 -0.000000 0.000000 0.000000 0.000000 0.000000 0.000000 0.000000 
2.630084 16.503309 1.097489 175.181499 -55.537581 -156.239818 -10.637681 0.823249 -2.940459 -3.925158 31.450699 -23.984722 -2.089172 0.086641 17.617942 4.372001 32.815624 5.307949 8.536100 -0.000001 -57.269300 10.738668 0.145616 6.550131 -10.245412 6.980742 -46.456405 0.304929 -1.721940 30.833354 -0.023299 1.526830 0.540126 -0.035000 -0.000000 -80.412300 -2.524654 -1.383704 -4.749417 -0.856439 -1.323711 -4.063112 -5.018652 -1.317840 -1.249047 10.958247 -6.667650 -4.578990 -2.403258 -0.219169 0.796759 0.000000 0.000000 0.000000 5.466513 7.643942 2.827090 -56.868399 24.264687 -11.762849 -179.353523 -71.662134 179.959636 8.179648 -11.355407 -0.866597 -0.148789 0.540518 -0.000000 0.000000 0.000000 0.000000 0.000000 0.000000 0.000000 6.090072 0.437958 -3.414117 67.220084 56.309186 15.612925 -179.401433 61.506958 179.702534 -24.922774 17.213489 -4.193245 0.579788 -1.184378 -0.000000 0.000000 0.000000 0.000000 0.000000 0.000000 0.000000 
2.593106 16.540168 1.093084 176.738681 -52.858933 -156.791755 -10.774302 0.816035 -3.021836 -3.775279 32.219242 -23.680534 -2.106365 0.042649 16.738263 4.507461 33.981478 5.928720 9.312200 0.000000 -56.657399 10.461688 -0.050820 7.027799 -10.010465 8.795006 -47.223983 0.404709 -1.537361 28.680027 0.196426 2.438374 2.008078 0.138800 -0.000000 -80.658400 -1.721258 -1.217606 -5.052558 -0.707896 -1.240020 -4.038803 -4.982249 -1.230894 -0.821778 11.134762 -7.055790 -5.116023 -2.364425 -0.209818 0.651097 0.000000 0.000000 0.000000 6.392296 8.310432 2.961430 -55.667798 26.353869 -12.763903 -179.267944 -70.787765 179.966248 7.357123 -11.480761 -0.788118 -0.142472 0.538761 -0.000000 0.000000 0.000000 0.000000 0.000000 0.000000 0.000000 6.409185 0.327621 -3.161009 65.518157 56.949999 15.405816 -179.479275 61.580466 179.705716 -24.940723 16.902188 -4.123762 0.592664 -1.175375 -0.000000 0.000000 0.000000 0.000000 0.000000 0.000000 0.000000 
2.559470 16.578585 1.089263 178.151400 -50.319163 -157.201685 -10.924962 0.795251 -3.097428 -3.544938 32.905245 -23.353419 -2.117948 0.002004 15.871817 4.609121 34.931499 6.600083 10.072200 0.000000 -56.083401 10.177980 -0.249507 7.452303 -9.712102 10.458901 -47.814296 0.540015 -1.346276 26.333380 0.421533 3.361207 3.618999 0.360700 0.000000 -80.928600 -0.911387 -1.045121 -5.284843 -0.560927 -1.147702 -4.001131 -4.959459 -1.134339 -0.413492 11.301769 -7.463840 -5.587707 -2.330991 -0.201495 0.521963 0.000000 0.000000 0.000000 7.481152 8.737345 3.105324 -54.224984 28.065446 -13.916405 -179.203045 -70.076172 179.970483 6.851061 -11.533170 -0.738029 -0.141962 0.540614 0.000000 0.000000 0.000000 0.000000 0.000000 0.000000 0.000000 6.757236 0.134572 -2.914909 63.829435 57.602088 15.108065 -179.525549 61.717025 179.707958 -24.978775 16.606819 -4.060420 0.601827 -1.165221 -0.000000 0.000000 0.000000 0.000000 0.000000 0.000000 0.000000 
